<svg width="23" height="17" viewBox="0 0 23 17" fill="none" xmlns="http://www.w3.org/2000/svg">
<path d="M18.32 1.1875C19.319 2.11924 20.1165 3.24579 20.6633 4.49764C21.2101 5.7495 21.4947 7.10012 21.4994 8.46618C21.504 9.83225 21.2288 11.1848 20.6906 12.4404C20.1524 13.6959 19.3626 14.8279 18.37 15.7665M15.593 4.1125C16.1925 4.67155 16.6711 5.34752 16.9992 6.09868C17.3274 6.84985 17.4981 7.6603 17.5009 8.48001C17.5037 9.29972 17.3386 10.1113 17.0156 10.8647C16.6926 11.6181 16.2186 12.2974 15.623 12.8605M6.981 11.9075L8.657 13.9805C9.53 15.0605 9.967 15.6015 10.349 15.6605C10.512 15.6855 10.6786 15.6699 10.8341 15.6149C10.9895 15.5599 11.129 15.4674 11.24 15.3455C11.501 15.0595 11.501 14.3645 11.501 12.9755V4.0255C11.501 2.6365 11.501 1.9425 11.241 1.6555C11.1299 1.53346 10.9902 1.44082 10.8346 1.38585C10.679 1.33089 10.5121 1.31531 10.349 1.3405C9.966 1.3995 9.529 1.9405 8.657 3.0205L6.98 5.0935C6.804 5.3125 6.716 5.4215 6.607 5.4995C6.5103 5.56916 6.40193 5.62098 6.287 5.6525C6.157 5.6885 6.017 5.6885 5.736 5.6885H4.313C3.556 5.6885 3.178 5.6885 2.873 5.7885C2.57618 5.88632 2.30642 6.05234 2.08535 6.27323C1.86428 6.49413 1.69805 6.76376 1.6 7.0605C1.5 7.3665 1.5 7.7445 1.5 8.5005C1.5 9.2565 1.5 9.6345 1.6 9.9405C1.69805 10.2372 1.86428 10.5069 2.08535 10.7278C2.30642 10.9487 2.57618 11.1147 2.873 11.2125C3.178 11.3125 3.556 11.3125 4.313 11.3125H5.736C6.016 11.3125 6.156 11.3125 6.286 11.3485C6.40093 11.38 6.5093 11.4318 6.606 11.5015C6.716 11.5795 6.805 11.6895 6.981 11.9075Z" stroke="white" stroke-width="2" stroke-linecap="round" stroke-linejoin="round"/>
</svg>
